# xmcd
#
# Track frame offsets:
#	150
#	14535
#	29337
#	42609
#	57472
#	70525
#	85263
#	99493
#	112239
#	126659
#	140936
#	153788
#	167118
#	178582
#	194936
#	206323
#	219566
#	234807
#	249140
#	263880
#	278680
#	292339
#	307812
#	322049
#
# Disc length: 4472 seconds
#
# Revision: 3
# Processed by: cddbd v1.5.2PL0 Copyright (c) Steve Scherf et al.
# Submitted via: EasyCDDAExtractor 9.1.1.2
#
DISCID=70117618
DTITLE=Frank Sinatra - Frank Sinatra Portrait - 24 Carat Gold Edition - Disc 3
DTITLE=Various Artist - Love Me As I Am
DYEAR=1900
DGENRE=Blues
TTITLE0=Love Me As I Am
TTITLE1=Moments In The Moonlight
TTITLE2=Yours Is My Heart Alone
TTITLE3=Too Romantic
TTITLE4=Head On My Pillow
TTITLE5=It's Always You
TTITLE6=I'll Never Smile Again
TTITLE7=Be Careful, It's My Heart
TTITLE8=I Could Make You Care
TTITLE9=You're Lonely And I'm Lonely
TTITLE10=Where Do You Keep Your Heart?
TTITLE11=Two In Love
TTITLE12=Last Call For Love
TTITLE13=The One I Love Belongs To Somebody Else
TTITLE14=It's A Lovely Day Tomorrow
TTITLE15=Oh, What A Beautiful Morning
TTITLE16=Polka Dots And Moonbeams
TTITLE17=Looking For Yesterday
TTITLE18=This Is The Beginning Of The End
TTITLE19=Everything Happens To Me
TTITLE20=A Sinnner Kissed An Angel
TTITLE21=Say It
TTITLE22=The Call Of The Canyon
TTITLE23=Whispering
EXTD=
EXTT0=
EXTT1=
EXTT2=
EXTT3=
EXTT4=
EXTT5=
EXTT6=
EXTT7=
EXTT8=
EXTT9=
EXTT10=
EXTT11=
EXTT12=
EXTT13=
EXTT14=
EXTT15=
EXTT16=
EXTT17=
EXTT18=
EXTT19=
EXTT20=
EXTT21=
EXTT22=
EXTT23=
PLAYORDER=
